Coordinates
version=1
nRows=17
nColumns=40
inDegrees=yes

Units are S.I. units (second, meters, Newtons, ...)
Angles are in degrees.

endheader
time	pelvis_tilt	pelvis_list	pelvis_rotation	pelvis_tx	pelvis_ty	pelvis_tz	hip_flexion_r	hip_adduction_r	hip_rotation_r	knee_angle_r	knee_angle_r_beta	ankle_angle_r	subtalar_angle_r	mtp_angle_r	hip_flexion_l	hip_adduction_l	hip_rotation_l	knee_angle_l	knee_angle_l_beta	ankle_angle_l	subtalar_angle_l	mtp_angle_l	lumbar_extension	lumbar_bending	lumbar_rotation	arm_flex_r	arm_add_r	arm_rot_r	elbow_flex_r	pro_sup_r	wrist_flex_r	wrist_dev_r	arm_flex_l	arm_add_l	arm_rot_l	elbow_flex_l	pro_sup_l	wrist_flex_l	wrist_dev_l
      0.62000000	     -2.64752118	     -2.09260628	      9.41509194	     -0.17922853	      0.87144064	      1.11138426	     29.97638992	     -3.27935871	    -16.01562917	    -31.52028944	     -0.55013283	      0.34738209	     -7.91050460	     10.62483161	     -5.03450464	      7.49014371	      0.70002870	    -41.59235211	     -0.72592349	    -12.22188171	     10.75524423	     -3.31539606	     -2.09934113	      1.92444436	    -11.18799472	    -13.76688070	     -7.52309997	    -20.60000071	     17.08601792	     89.95437384	      0.00000000	      0.00000000	     -2.44738822	     14.68924862	     15.12184438	     77.47313654	     89.95437384	      0.00000000	      0.00000000
      0.63000000	     -2.55607793	     -2.53710870	      9.20404101	     -0.16435368	      0.87136306	      1.11343768	     29.40321523	     -2.23402749	    -15.17229694	    -32.25650179	     -0.56298216	      1.05941676	     -8.81927395	     10.43547632	     -3.73829303	      8.02365496	      0.22316528	    -44.44464163	     -0.77570533	    -15.78271079	     12.16303925	     -2.66660826	     -1.96065168	      2.49533157	    -10.75433800	    -13.36760127	     -7.62129986	    -21.11151754	     16.98621325	     89.95437384	      0.00000000	      0.00000000	     -2.86431806	     14.38322908	     15.20421354	     76.86904665	     89.95437384	      0.00000000	      0.00000000
      0.64000000	     -2.15143841	     -2.85308013	      9.02461358	     -0.14928203	      0.87198690	      1.11522201	     28.24700100	     -1.37173951	    -14.78598395	    -32.81678326	     -0.57276092	      2.31641429	     -9.23151334	     10.14619895	     -2.80858454	      8.45861742	     -0.26914235	    -47.19383220	     -0.82368776	    -18.55428819	     12.88677917	     -2.19923975	     -2.19859739	      2.97636638	    -10.27646573	    -12.93342445	     -7.78080471	    -21.09248238	     16.87243480	     89.95437384	      0.00000000	      0.00000000	     -3.27864688	     14.16262214	     15.03763249	     76.22929856	     89.95437384	      0.00000000	      0.00000000
      0.65000000	     -1.87014376	     -3.19222066	      8.74759886	     -0.13480369	      0.87269536	      1.11715220	     27.14158038	     -0.48351009	    -14.47935964	    -33.14958292	     -0.57856937	      3.42454212	     -9.35551472	      9.85022965	     -1.52696152	      8.82210415	     -0.72183123	    -50.19577979	     -0.87608163	    -20.46139043	     13.54359152	     -1.77540160	     -2.39844161	      3.45030924	     -9.71071235	    -12.39751542	     -7.93903829	    -20.98509176	     16.89204664	     89.95437384	      0.00000000	      0.00000000	     -3.67115827	     13.87537863	     14.98178155	     75.47729773	     89.95437384	      0.00000000	      0.00000000
      0.66000000	     -1.89906538	     -3.57330738	      8.45574378	     -0.12116862	      0.87318416	      1.11898351	     26.30810472	      0.29517257	    -14.45243811	    -33.27090435	     -0.58068683	      4.28240904	     -9.27329995	      9.59090193	      0.41040561	      9.15798223	     -1.10577619	    -53.48703570	     -0.93352488	    -21.53218257	     14.16053316	     -1.19681404	     -2.34313644	      3.92371431	     -9.11803934	    -11.81078399	     -8.11187093	    -20.83233409	     17.05922215	     89.95437384	      0.00000000	      0.00000000	     -3.97473375	     13.49146724	     14.97796059	     74.55830253	     89.95437384	      0.00000000	      0.00000000
      0.67000000	     -1.96740932	     -3.83666678	      8.13125412	     -0.10798700	      0.87393255	      1.12061178	     25.44546490	      0.85002432	    -14.60363849	    -33.27766817	     -0.58080488	      5.14594655	     -8.88884884	      9.31110839	      2.41997073	      9.32357662	     -1.31029640	    -56.63245064	     -0.98842273	    -21.91801630	     15.02127605	     -0.02467215	     -2.31896007	      4.27356099	     -8.47459951	    -11.16074179	     -8.33187231	    -20.29024606	     17.25541220	     89.95437384	      0.00000000	      0.00000000	     -4.23737755	     13.15414665	     14.83621349	     73.51178957	     89.95437384	      0.00000000	      0.00000000
      0.68000000	     -1.76113774	     -4.01143843	      7.83620633	     -0.09476825	      0.87540932	      1.12200945	     24.11095409	      1.35463539	    -14.77568624	    -33.00126602	     -0.57598075	      6.09494503	     -8.43380819	      8.97084616	      4.03848002	      9.44550544	     -1.21582499	    -59.37467912	     -1.03628364	    -21.30667466	     16.23367497	      0.41202114	     -2.63232059	      4.55255640	     -7.85598513	    -10.41597073	     -8.55119835	    -19.86335945	     17.58397815	     89.95437384	      0.00000000	      0.00000000	     -4.47423231	     12.83320276	     14.69355303	     72.34298868	     89.95437384	      0.00000000	      0.00000000
      0.69000000	     -1.63293164	     -4.10480856	      7.48385793	     -0.08184443	      0.87691363	      1.12337407	     22.88151722	      1.76228853	    -14.83962121	    -32.71632836	     -0.57100765	      6.82761102	     -7.94527256	      8.65216935	      5.72413367	      9.46155528	     -0.95059000	    -61.84321192	     -1.07936767	    -20.25475407	     17.45616918	      0.83137244	     -2.89178937	      4.73535906	     -7.16188151	     -9.66333384	     -8.76971117	    -19.36101116	     17.96277027	     89.95437384	      0.00000000	      0.00000000	     -4.60767253	     12.44353358	     14.63741670	     70.94550529	     89.95437384	      0.00000000	      0.00000000
      0.70000000	     -1.73843400	     -4.24532790	      7.23100532	     -0.06881161	      0.87814228	      1.12472893	     21.85814623	      2.12345204	    -15.07821823	    -32.33229432	     -0.56430499	      7.42909293	     -7.19031858	      8.17872749	      7.81390049	      9.61714974	     -0.55320512	    -64.25275319	     -1.12142210	    -18.21701464	     17.95364978	      1.89961938	     -2.81556883	      4.88862965	     -6.52673744	     -9.22201327	     -8.99113755	    -18.58421238	     18.89622694	     89.95437384	      0.00000000	      0.00000000	     -4.85424660	     12.15737484	     14.39582671	     69.53725738	     89.95437384	      0.00000000	      0.00000000
      0.71000000	     -1.78028599	     -4.04966198	      7.03474095	     -0.05621495	      0.87975161	      1.12553346	     20.75902927	      2.07158134	    -15.19764867	    -31.99860240	     -0.55848097	      7.81280570	     -6.67876236	      6.04048021	      9.90209818	      9.18479133	     -0.17112557	    -66.51600748	     -1.16092334	    -14.68277678	     17.98989164	     18.54938428	     -2.91411001	      4.70170261	     -6.04959754	     -8.53266574	     -9.23611004	    -17.72887179	     19.67143956	     89.95437384	      0.00000000	      0.00000000	     -5.04183215	     11.79921063	     14.38353499	     67.93393431	     89.95437384	      0.00000000	      0.00000000
      0.72000000	     -1.70480417	     -3.82985284	      6.72649320	     -0.04334801	      0.88168075	      1.12674771	     19.44329249	      2.16785150	    -14.98631333	    -31.47711775	     -0.54937934	      8.35019016	     -6.36620239	      5.80961160	     11.56105676	      8.81223135	      0.27143277	    -67.92583714	     -1.18552951	    -13.33315145	     18.42237164	     18.21764230	     -3.10218554	      4.45953019	     -5.38419989	     -7.88743959	     -9.36592667	    -17.44472198	     20.51998340	     89.95437384	      0.00000000	      0.00000000	     -5.17760539	     11.52793185	     14.25416239	     66.15750406	     89.95437384	      0.00000000	      0.00000000
      0.73000000	     -1.72660580	     -3.66795048	      6.32089667	     -0.03064258	      0.88339457	      1.12812226	     18.25738370	      2.32897425	    -14.76767232	    -30.93758438	     -0.53996271	      8.77737217	     -6.03338737	      5.56162533	     13.31840043	      8.53425992	      0.86157177	    -69.12739138	     -1.20650058	    -11.62034640	     18.63063744	     17.99921465	     -3.19179028	      4.24971234	     -4.60606206	     -7.38587893	     -9.52665640	    -17.09936463	     21.72566558	     89.95437384	      0.00000000	      0.00000000	     -5.33705065	     11.27632397	     14.04063685	     64.31266721	     89.95437384	      0.00000000	      0.00000000
      0.74000000	     -1.76174084	     -3.58028243	      5.81580540	     -0.01795122	      0.88507804	      1.12965384	     17.05234717	      2.67874196	    -14.20656865	    -30.26365497	     -0.52820042	      8.94519181	     -6.25364394	      4.80293680	     15.04384157	      8.41349537	      1.62725076	    -70.03640821	     -1.22236592	     -9.38394084	     18.66533464	     21.60825806	     -3.27122243	      4.10130646	     -3.75372661	     -6.87659742	     -9.73160451	    -16.65190957	     22.96445874	     89.95437384	      0.00000000	      0.00000000	     -5.50439490	     11.01284429	     13.93175137	     62.41756563	     89.95437384	      0.00000000	      0.00000000
      0.75000000	     -1.82593187	     -3.27370624	      5.40578250	     -0.00541658	      0.88685692	      1.13062263	     15.85855821	      2.62421806	    -14.00815931	    -29.61248080	     -0.51683529	      9.30805518	     -5.98264849	      4.63043581	     16.66867704	      7.87255204	      2.24409916	    -70.42878083	     -1.22921411	     -7.58054409	     18.72603434	     21.03120419	     -3.31208480	      3.73592528	     -3.10171091	     -6.26543343	     -9.92283582	    -16.40390626	     24.15268364	     89.95437384	      0.00000000	      0.00000000	     -5.68855849	     10.70938024	     13.98776416	     60.32329529	     89.95437384	      0.00000000	      0.00000000
      0.76000000	     -1.75295192	     -3.13181902	      4.79283051	      0.00711345	      0.88862272	      1.13204096	     14.50769409	      2.79759986	    -13.68624379	    -28.90597419	     -0.50450442	      9.61185620	     -5.51098420	      4.39272511	     18.02444732	      7.71571255	      3.14664552	    -70.54334242	     -1.23121359	     -5.20163337	     18.63811682	     20.59188584	     -3.52786121	      3.54644925	     -2.19792814	     -5.85671316	    -10.16055916	    -16.05448278	     25.85422589	     89.95437384	      0.00000000	      0.00000000	     -5.90356070	     10.48887644	     13.90128162	     58.36576208	     89.95437384	      0.00000000	      0.00000000
      0.77000000	     -1.86838338	     -2.89215027	      4.34113004	      0.01931737	      0.89016230	      1.13295385	     13.36923883	      2.73892280	    -13.57645970	    -28.19890226	     -0.49216369	      9.79356396	     -5.13445869	      4.22882351	     19.62370314	      7.24359013	      3.79597599	    -70.33835333	     -1.22763586	     -2.99871746	     18.54576055	     20.02944745	     -3.53540430	      3.25877448	     -1.57766842	     -5.27520902	    -10.37470765	    -15.79032419	     27.33353014	     89.95437384	      0.00000000	      0.00000000	     -6.10069495	     10.12863983	     14.20192586	     56.19574913	     89.95437384	      0.00000000	      0.00000000
      0.78000000	     -1.92259226	     -2.68697066	      3.80198169	      0.03176378	      0.89159932	      1.13399661	     12.14203740	      2.72235694	    -13.44399465	    -27.49147579	     -0.47981677	     10.04304057	     -4.67639536	      4.05649758	     21.00625698	      6.92861329	      4.59334055	    -69.76134694	     -1.21756519	     -1.13185034	     18.41697822	     19.54862984	     -3.58832345	      2.99276380	     -0.89154505	     -4.80170525	    -10.62461859	    -15.51946156	     29.01770477	     89.95437384	      0.00000000	      0.00000000	     -6.40004614	      9.84709091	     14.45629279	     54.11880292	     89.95437384	      0.00000000	      0.00000000
